# xmcd
#
# Track frame offsets:
#	150
#	14345
#	27555
#	42732
#	56376
#	74254
#	86303
#	103801
#	120737
#	133365
#	149039
#	162021
#	174352
#	186219
#	199166
#	213237
#	228416
#	244573
#	258451
#	272470
#
# Disc length: 3794 seconds
#
# Revision: 0
# Processed by: cddbd v1.5.1PL0 Copyright (c) Steve Scherf et al.
# Submitted via: dBpowerAMP V4.0
#
DISCID=250ed014
DTITLE=Varios - Sertanejo Bom de dança
DYEAR=2005
DGENRE=Setanejo
TTITLE0=Teodoro&Sampaio-Peão azarado
TTITLE1=Mato Grosso-Eu quero te namorar
TTITLE2=Leonardo-escorpião
TTITLE3=Teodoro&Sampaio-Mulher chorona
TTITLE4=Zezé di camargo&Luci-Galera felicidade
TTITLE5=Adalberto&Adriano-A cobra vai fuma
TTITLE6=Guilherme&Santiago-A Outra Misturinha
TTITLE7=César&Paulinho-Olha Nois Aqui
TTITLE8=Teodoro&Sampaio-E mintira dela
TTITLE9=Gino&Geno-Agora é só alegria
TTITLE10=Gilberto&Gilmar-Ta embolado o meio de campo
TTITLE11=Dois a um-Mulher boa
TTITLE12=Adalberto&Adriano-Comendo Poeira
TTITLE13=Teodoro&Sampaio-Filha da Tuta
TTITLE14=Guilherme&Santiago-Peão não chora
TTITLE15=Cezar&Paulinho-Da-lhe cerveja
TTITLE16=Gino&Geno-Mete o dedo
TTITLE17=Gilberto&Gilmar-Arrepia, arrepia
TTITLE18=Dois a um-Na base do senhenhen
TTITLE19=Teodoro&Sampaio-Brinquinho na orelha
EXTD=
EXTT0=
EXTT1=
EXTT2=
EXTT3=
EXTT4=
EXTT5=
EXTT6=
EXTT7=
EXTT8=
EXTT9=
EXTT10=
EXTT11=
EXTT12=
EXTT13=
EXTT14=
EXTT15=
EXTT16=
EXTT17=
EXTT18=
EXTT19=
PLAYORDER=
